<svg xmlns="http://www.w3.org/2000/svg" viewBox="0 0 122 66"><mask id="a" x="0" y="0"><path fill="#fff" d="M0 0h121.3v66H0V0Z"/></mask><g mask="url(#a)"><path fill="#F0464B" d="M119.4 36.7v.3l-1.1.8c.4 1 .5 2.2.2 3.3a4.2 4.2 0 0 1-4.6 3 5.8 5.8 0 0 1-3-1.5 7.5 7.5 0 0 1-1.5-2l-1 .3c-.2.1-.3 0-.3-.1l-.2-.3c-.6-1.8-.6-3.6.3-5.3.3-.5.4-.4-.2-.8l-2.7 2.3a14.2 14.2 0 0 1-5 2.8c-.3 0-.5.2-.8.3v3c0 .6.3.9.8 1a9 9 0 0 1 4.8 4v.5l-1 .7c.4 1.1.5 2.3.3 3.4a4.2 4.2 0 0 1-4.6 3 6 6 0 0 1-3-1.5 7.7 7.7 0 0 1-1.6-2l-.9.3c-.2.1-.4 0-.4-.2l-.1-.3c-.4-1-.5-2-.4-3.2.2-1.1.6-2.2 1.5-3 .2-.3.3-.5.2-.8l-.5-1.7-.5-1.8-21.5 5.4.8 1.3.5 1c.5.7.8 1.6.8 2.5l-.1 1.1c0 1.3-.2 2.5-.8 3.7-.3.7-.9 1.2-1.6 1.6l-1.3.5c-1 .3-2 .8-3 1l-12.2 2.1-11 2c-1.2.1-2.2.4-3.4.4l-1.9.1H39l-.3-.1c-.3-.2-.7-.3-1-.6-1.2-.9-2-2-2.4-3.4a9 9 0 0 1-.5-2.7h-.1l-8 2c-.2 0-.3 0-.3-.3l-.4-1.1c0-.3 0-.5.3-.6l7.4-4.8 1-.6h-1.3c-2-.1-3.9-.1-5.8-.3-1.1 0-2.2-.2-3.3-.5-1.4-.4-2.8-1-4.2-1.6l-1-.5a5 5 0 0 1-2.3-2c0-.1-.1-.3-.4-.2l-4.3.7-8.6 1.5c-.4 0-.4 0-.6-.3a33 33 0 0 1-.7-1.4V47l8.3-5.1c1-.7 2-1.4 2.9-2.4l-2.5-6.6c-.6-1.6-1-3.1-1.3-4.7-.1-.7 0-1.3.2-1.8a4.5 4.5 0 0 1 3-2l3.8-.6h.8c.6.3 1.2.5 1.7.9l8.5 5.6c.2.1.3.2.5.1l9-1.7c.3 0 .5 0 .6.3l.3 1c.1.3 0 .6 0 .8l-.8 1.2 6.2-2.4 7.7-3 .2-.4.3-1c.5-1.2 1.1-2.4 1.8-3.5.1-.1.4-.2.4-.4.1-1 .6-1.7 1.3-2.3l3.3-2.7c.5-.4 1-.5 1.6-.4h.2l3.6-2c1.1-.6 2.2-1 3.2-2l.4-.3c.5-.4 1.1-.7 1.8-.9l1.1.1h.5c.7-.2 1.5-.3 2.3-.3 1 0 1.9.2 2.7.6a20 20 0 0 1 4.2 2.5l1.1.8h.1L87.8 8l.4-.2 2.9-.9 16.1-4.8c.2 0 .3 0 .5.2l.7 1.3V4a390.7 390.7 0 0 0-5 7h.7c1 0 1.8.4 2.6.7 1.5.5 2.8 1.4 3.8 2.6.3.3.7.5 1 .6l1.7.7c1.4.8 1.5 2.7 1.2 3.8l-1 2c-.1 0-.2.1-.1.2A13.5 13.5 0 0 1 111 30c-.1.1-.2.2 0 .3l1.3 2c.1.1.3.2.5.1.4-.2.8-.1 1.1 0 2.3.7 4.2 2.3 5.4 4.3"/><path fill="#fff" d="m87.3 7-7 6.9 1.5 1.3 2-.4 16.8-4.4 6-7.6 1.4-1.6L87.3 7Z"/><path fill="#F0464B" d="m107.8 14.2 2.9.6 2.2.6c2.2 2.3 1.4 4 .3 5.7-1 1.4-2.2 3.6-2.7 4.5-.5.9-2 2.2-4 .5a9.4 9.4 0 0 1-3-9.2c.8-2.8 3-3 4.3-2.7Z"/><path fill="#383838" d="M106 14.2c-3 .7-3 5.1-2.5 7.2a5.8 5.8 0 0 1-.4-6.5c.4-.7 2-1.6 2.6-2 .8-.3 1.7-.3 2.5 0a8 8 0 0 1 2.4 1.8c-1.5-.5-3-.7-4.5-.5Z"/><path fill="#fff" d="M106.2 17.7c-2 .6-2.7.3-2.8.1 0-.8.4-1.7.6-2 1.5-2.8 5.6-1.6 6.9-1.2l1.1.3c2 .7 2.4 2.3 2.3 3-.1-1.1-1.4-2-2-1.5a6 6 0 0 1-2.2.8l-3.9.5Z"/><path fill="#F0464B" d="M38.1 63.6c-2.7-1.3-3.5-4.9-3.5-6.5l10.1-2.6 17.5-9 5-.6c3.4-.6 4.8 1.4 5.1 1.8l1.3 2.1c.4.4.5 1 .8 1.8.2.6 0 1.8 0 2.2 0 4-2.3 5.2-3.4 5.4l-14 2.6-14.3 2.6-4.6.2Z"/><path fill="#F0464B" d="m44.7 54.4-1-1.6L75 35.6l1.9 2.6-32 16.6L34.4 57l10.1-2.7Z"/><path fill="#383838" d="m48.7 42.4 26-6.8-4.6 2.7-21.4 4Z"/><path fill="#F0464B" d="M107.2 2 99.5 12l3.6-1 5.2-7-1-1.9Z"/><path fill="#383838" d="M54.2 19.6c-1.4 1.5-.8 8 0 10.7l1.7-1c-.8-1.9-1.3-7.1-1-8.7.3-1.2 3.4-3.7 4.9-4.8-.7-.1-1.2 0-1.7.5-.7.5-2.5 1.7-3.9 3.3"/><path fill="#F0464B" d="m94.9 44.7-1.8-5.6 3.5-.9 1.8 5.7c.1-.2.7-.3 1-.3l1 .4c1.4.5 2.7 1.5 3.6 2.8-1.2.6-1.4 1.4-1.4 1.7-2.3-2.6-4.6-3.2-5.5-3.2-.8.2-2.8 4.6-2.7 4.9.6 3.4-1 3.2-2.3-.3-.2-.6 2.4-4.5 2.8-5"/><path fill="#383838" d="m98.3 43.9-1.7-5.6 2.6.1.2 4c0 .6 0 1 .2 1.2-.5 0-.9.1-1.3.3"/><path fill="#fff" d="M75.5 10.9c-1.6-.8-4-.7-5-.2h-.1l-.7.3-.6.4c-1.3.8-2.9 1.8-3.8 2.7-.6.6-.6.8-.7 1.3v.2c-.2.5-.7 3.1.5 6.1-.7-4.4-.5-6.1 2-6.2 3.9.1 7 3 8.4 5.1l6.7-5c-1.6-1.7-3.4-3-5.3-4m-11 .9-6.1 3.3s-2 1.3-3.3 2.8c-.4.4-1.1 1-1.4 1.5-.7 1.3-.3 2.7-.2 4 0-.7.3-2.8 1.3-4 1.3-1.4 6.6-3.5 6.6-3.5 0-.2 0-1.4.6-2l2.5-2m-32.5 20c-1.4.1-4.3-2.1-5.5-3.1l-.1-.2 9.4-1.7h.4L35 31.9l-1.5.8Z"/><path fill="#383838" d="M2 47.2v-.3l15.5-2.7-1 2.4-13.1 2.2-.7-.1-.7-1.5Zm98.2 8.2c-2.6 0-4.6-2.3-5.3-3.4l1.8-.6c.6-.2.8-.8 1-1.3.1-.5.5-.8 1.2-1 .6-.2 1 0 1.4.2.5.3 1 .6 1.5.4l2.2-.8c.5 1.3.4 2.8.2 3.4-.3 1-1.4 3-4 3Z"/><path fill="#3BB1F4" d="M102.7 52.2c-.2.7-1.8 1.3-3 1.3a3.7 3.7 0 0 1-2.7-1.4c.3.3.5 1 1.1 1.3a3 3 0 0 0 4.6-1.2Z"/><path fill="#383838" d="M11.6 26.5c.7-.5 2.6-1.6 3.6-1.3 1 .5 6.8 8.8 14 12.5 1.7.9 4.5 1 7.6.5 2.4-.3 65.6-14.4 65.6-14.4s2.2 4 6.3 3.6c3.7-.5 4.4-4.9 4.4-4.9s.3 4-2.4 7.7c-1.3 1.7-2 3.4-3.3 4.7-2.2 2.4-5 4-8.2 4.9-1.3.3.4 3.8.4 3.8l-1.3.3-1.8-5.6-3.1 1.6.4 1.3-21.5 5.4c-.6-.4-3.3-2.6-5.1-1.7-1.8.9-13.6 5.3-13.6 5.3L70 40.5v-2.2l-21.4 4-14.3 9.4c1.5 0-6 .1-9.4-.6-2.4-.5-4.8-1.3-7-2.5l-1.8-2 10-5.4-.5-1.3s-8.6 1.7-9 1c-1.6-3.4-7.3-13-5.1-14.4Z"/><path fill="#383838" d="M113.8 16.9s1.2 1 .1 3.1c-.5.9-1.8 3.3-2.8 4.8-.9 1.2-2.4 1.7-4 1.5-.4 0-.9-.2-1.3-.5-1.7-1.2-2.1-2.5-2.1-2.5s4-1.3 6.3-3.2"/><path fill="#fff" d="m43.7 52.8-18 4.6.2-.2L50.2 41l19.9-2.7-26.4 14.5Z"/><path fill="#383838" d="m111.3 33.8-2-1.9-1.5 2.5.5.4 1 .7 1.7-1 .3-.7Zm-11.8 9.7s3 0 5.6 4.5c-.1.5 0 .6-1.5 1-.4-.6-1.6-3.7-4.6-4.2-1.8-.3-2.5 0-2.5 0l1.8-.9 1.2-.4Z"/><path fill="#fff" d="M103.5 49a6.7 6.7 0 0 0-7.2-4.1c.7-.2 1.4-.6 2.8-.4 2.2.4 4 2.3 4.3 4"/><path fill="#383838" d="m110.7 30.2 1.5 2s.7-.1 1.6.2c1 .4 4 .4 5.4 4.3.1.5-1.4 1.6-1.9 1.2-.4-.3-1.3-2.2-2-2.7-.9-.5-3.2-1.4-4.1-1.7-.9-.3-1.8-1.6-1.8-1.6l1.3-1.7ZM74.2 53s-.9.6-1.8 0c-.9-.5-1.6-1.6-1.6-1.6l-3.3 1s-.8.1-.7.9c0 .3.4 1 .7 1.6a2.2 2.2 0 0 0 2.6 1.2 7.1 7.1 0 0 0 4.2-3.1Z"/><path fill="#fff" d="m51.3 26.1-16.7 6.7c-1.6 1-3.8-.3-4.7-1-4-2.8-8-5.5-12-8-.3-.2-.6-.2-1-.2h-1.3c-1.4.1-4.3.8-5.1 1.6-1 1-1.5 1.6-1.1 3.4 1 3.7 2.3 7.2 3.8 10.7l-1.4 1.3-2.3 1.5L2 47l15.6-2.7 8.2-4.3-10.6 1c-1-3.1-5.1-10.6-5-14 .1-.8 1-1.8 4.8-2.8.4-.2 1 0 1.2.3 4 4.3 11.4 10.8 14 11 4.4.5 15-4.3 20.9-6-.1-1 .1-2.7.3-3.3Z"/><path fill="#383838" d="M66.1 52.6s1 3.8 3.8 5.6c1 .6-26.1 5-26.1 5L40.2 57 66 52.6Zm-28.4 3.7-3.2.8s0 6 3.2 6.9c1.8.5 2.2-.9 2.2-.9l-.4-2.9-1.9-3.9Zm6-3.5 1 1.7-18.6 4.7-.4-1.8 18-4.6Z"/><path fill="#fff" d="m79.1 19.3 3.6-2.9c.3-.3.8-.5 1.3-.7l19.1-4.8c.2-.1.7-.2 2 .2 1.2.3 2.7 1 3.2 1.3.3.2 1.2.7 1.8 1.5.4.5 1 1 1.6 1.1l-1.2-.4a10 10 0 0 0-2.2-1.7c-2.5-1-5.6 2.2-6.4 3.1-.6.8-1.7 1.2-2.1 1.4L90 19.9c-2.6.6-8.4 2-11 2-2.5 0-1-1.7.1-2.6"/><path fill="#383838" d="M108.2 34.8s-1.8 1.6-.4 6c.2.3.4.1.7 0 .8-.1 2.7-.8 2.7-.8s.1-.8.3-1.1c.1-.3 1.3-1 1.9-.7.6.4.7.5 1 .5l3-.8s-1.6-2.7-2.7-3.5c-1-.6-3-.8-3-.8l-.5-.3-1.8-1.4-1.6 2.5.4.4Zm-26-19.2s-6 4-7.2 5.2c-.7.8-1 2.5-4.2 4.1-1.5.8-18.7 5.4-19.5 5.6-.5 0-.2-1.4-.3-2.4-.4 1.5-.6 2.6 0 3.7 0 .2.2.3.4.2a66.7 66.7 0 0 0 21-6c2-1.4 2.7-3.2 2.8-3.6l1-1.4c1.5-1.4 6-4.8 6-4.8l.5-.4.5-.2.8.1"/><path fill="#fff" d="M113.8 18.9s-4 8.5-8.5 5.4c0 0 2.2 2.4 4.4.8 2.4-1.8 4-6.2 4-6.2h.1Zm-27.9 5.4 16.5-.5-13.2 1.7 7.1 7.3-18.4-3 9.3 7.8-20.2-4 6.8 5L60 31.2l22.6 4.3-9-7.5 18.6 2.6-6.3-6.2Z"/><path fill="#383838" d="M67.3 55.4 67 55l-22 3.6c-.4 0-1.6.6-1.8-1.6-.1-1.4 8-5.8 10.3-6.9l-9 4.2-7.7 2c0 .1-1 1.4-.6 4 .4 2.2 1.7 3.7 2.5 3.6 24.5-2.5 30.7-5 31.7-5.5a7.8 7.8 0 0 1-3.2-3.1ZM63 15c-1 1 .3 9 1.3 12l1.8-.6a59 59 0 0 1-1.6-7.6 9.6 9.6 0 0 1 0-3.6c.2-.8 1-1.4 2.4-2.4 1.8-1.3 2.6-1.7 3.4-2.1h-.2c-1.2 0-2 0-2.8.7-.2.2-3.4 2.4-4.3 3.6"/><path fill="#fff" d="M107.2 2s.2.1.2.3l.8 1.3V4a395 395 0 0 0-5 7h.7c.9 0 1.7.4 2.6.7 1.5.5 2.8 1.4 3.8 2.6.3.3.6.5 1 .6a9 9 0 0 1 1.7.7c1.4.8 1.5 2.7 1.2 3.8l-1 2-.2.2c.3 1.8-.1 3.5-.6 5.2-.4 1.1-1 2.2-1.6 3.1v.3l1.4 2 .3.2h.2c.2-.2.3-.2.5-.2l.6.1c2.3.7 4.2 2.3 5.4 4.3v.2l-.2.1-1 .8c.5 1 .6 2.2.3 3.3a4.2 4.2 0 0 1-4.6 3 5.8 5.8 0 0 1-3-1.5 7.5 7.5 0 0 1-1.6-2l-.9.3h-.1l-.3-.1v-.3c-.7-1.8-.7-3.6.2-5.3.3-.5.3-.4-.2-.8l-2.7 2.3a14.2 14.2 0 0 1-5 2.8c-.3 0-.6.2-.8.3v3c0 .6.2.8.7.9 2.8.4 4.5 3.4 4.9 4.2l-.1.4-.9.7c.4 1.1.5 2.3.3 3.4a4.2 4.2 0 0 1-4.6 3 6 6 0 0 1-3-1.5 7.7 7.7 0 0 1-1.6-2l-1 .4c-.2 0-.3-.1-.3-.3l-.2-.3c-.3-1-.4-2-.3-3.2.2-1.1.6-2.2 1.5-3 .2-.3.3-.5.2-.8l-.5-1.7-.6-1.8-21.5 5.4.9 1.3.4 1c.6.7 1 1.6.9 2.5 0 .4-.2.8-.1 1.1 0 1.3-.2 2.5-.8 3.7-.4.7-.9 1.2-1.6 1.6l-1.3.5c-1 .3-2 .8-3 1l-12.2 2.1-11 2c-1.2.1-2.3.4-3.4.4l-1.6.1a3 3 0 0 1-.6 0h-.2l-.2-.1c-.3-.2-.7-.3-1-.6-1.2-.9-2-2-2.4-3.4a9 9 0 0 1-.5-2.7h-.1l-8.1 2c-.2 0-.2-.1-.3-.3 0-.4-.2-.8-.3-1.1 0-.3 0-.5.2-.6l8.4-5.4h-1.2c-2-.1-4-.1-5.9-.3-1 0-2.1-.2-3.2-.5-1.4-.4-2.8-1-4.2-1.6l-1.1-.5a5 5 0 0 1-2.2-2c0-.1-.1-.2-.3-.2l-4.5.7-8.5 1.5H3c-.1 0-.2 0-.3-.3L2 47.2a.4.4 0 0 1 .2-.5l8-5c1-.6 2-1.4 2.9-2.3l-2.5-6.6c-.6-1.6-1-3.2-1.3-4.8-.1-.6-.1-1.2.2-1.7.7-1.1 5.5-2.5 6.8-2.6h.7l1.8.9 8.5 5.6.5.1 9.2-1.7c.2 0 .3 0 .4.3l.3 1c.1.3 0 .6-.1.8l-.7 1.2A2302 2302 0 0 0 51.3 26l.3-1a18 18 0 0 1 1.8-3.4l.2-.5c.1-1 .6-1.7 1.3-2.3 1-1 2.2-1.8 3.3-2.7a1.8 1.8 0 0 1 1.6-.4h.2l3.6-2c1.1-.6 2.2-1.1 3.2-2l.5-.3c.6-.5 1.3-.8 2.1-.8h1.1l2.3-.3c1 0 2 .2 2.8.6 1.5.6 2.9 1.5 4.2 2.5l1.1.8h.1L87.6 8l.4-.2 2.9-.9 16.3-4.8Zm0-2-.8.1a4802 4802 0 0 1-19 5.7c-.4 0-.8.3-1.2.6l-5.5 5.2c-1.3-1-2.7-1.9-4.3-2.5a9 9 0 0 0-3.6-.8c-1 0-1.8.1-2.5.3H69.3c-1.2 0-2.5.5-3.4 1.3h-.1c-1 .8-2.1 1.5-3.3 2v.1l-1.8 1-1.3.7h-.1a4 4 0 0 0-2.5.9l-.6.5a90 90 0 0 0-2.7 2.2c-1.1.9-1.8 2-2 3.4-.8 1.2-1.5 2.4-2 3.6v.5l-7.1 2.7h-.1l-2.8 1.1-.1-.3v-.1a2.5 2.5 0 0 0-3-1.6c-3 .6-5.8 1-8.4 1.6l-3.8-2.5-4.3-2.8-2-1.1h-.1c-.4-.2-.8-.2-1.1-.2H16l-4 1c-2.9 1.1-3.7 2-4.2 2.6-.5 1-.7 2.1-.5 3.2.3 1.9.9 3.6 1.4 5l1.7 4.5.3 1c-.4.4-1 .7-1.5 1v.1l-8 5a2.4 2.4 0 0 0-1 3l.6 1.5c.5 1 1.3 1.4 2.2 1.4h.7l4.2-.8 4.3-.7 2.2-.4 1-.2c.8.9 1.6 1.5 2.5 2h.2l1.8.8c1.2.4 2.3 1 3.6 1.3 1.3.4 2.8.6 4.2.7l-1.7 1-1 .8a2.5 2.5 0 0 0-1.2 2.9l.3 1v.1a2.3 2.3 0 0 0 3 1.7l5.8-1.5.2.8a8.9 8.9 0 0 0 3 4.5h.1l1.2.6.2.1.3.2.6.1 1.1.1h1.6l3-.5h.6l10.7-2h.3l4-.7 8.2-1.5c1-.1 1.8-.4 2.6-.7l.8-.3 1.4-.6c1.2-.5 2.1-1.4 2.7-2.6.7-1.4 1-3 1-4.6V51.6c.1-1.3-.2-2.6-1-3.6l17-4.3.2.9c-.9 1-1.4 2.3-1.6 3.6-.2 1.5 0 3 .6 4.5v.1c.4 1 1.3 1.6 2.2 1.6h.2l1 1c1.4 1.3 3.2 2 5 2a6.3 6.3 0 0 0 6-4.5c.3-1 .4-2 .2-3a2.3 2.3 0 0 0 .4-3 10.2 10.2 0 0 0-5.3-5v-.6c1.4-.5 2.7-1.2 3.9-2.1 0 .6.2 1.3.4 2v.1l.1.1.2.3c.4.9 1.2 1.4 2 1.4h.2l1 1c1.4 1.3 3.2 2 5 2.1a6.3 6.3 0 0 0 6.2-7.6c1-.7 1-2 .6-2.9a11.5 11.5 0 0 0-6.5-5.3 4 4 0 0 0-1.2-.2c.4-1 .8-1.8 1-2.6.6-1.6 1-3.5.9-5.6l1-1.8c.6-2 .1-5-2.2-6.3-.7-.4-1.4-.6-2-.8a10.2 10.2 0 0 0-4.8-3.2l-.3-.2h-.2l3.2-4.4c.6-1 .6-1.9 0-2.8l-.6-1.2a2.4 2.4 0 0 0-2.1-1.3Z"/><path fill="#fff" d="M72.6 48.1s-3.5-3.3-5 0c0 0-.6 1.6-.4 2.5 0 0 1.7-3.7 5.4-2.5Z"/><path fill="#fff" d="M72.3 46.6s-8.2-7.1-6.2 6c0 0-1.1-10.9 6.2-6Z"/><path fill="#3BB1F4" d="M68.9 42.8a143 143 0 0 0 35.3-9.9c-1.6 1.2-3.3 2.1-5.1 2.9-5 2.3-15.2 5.4-32.9 8.1l2.7-1.1Zm-38.6 6c-6.7 0-9.4-1.2-10.4-1.8 2.9.3 5.8 1 8.6 1 6.5 0 10-.5 12.1-1l-2 1.3c-3 .3-5.8.4-8.3.4Z"/><path fill="#383838" d="M115 44.1c-2.9.4-5-1.9-5.9-3.4l1.8-.6c.2-.1.3-.3.3-.6 0-.4.3-1 1-1.3.7-.4 1.4 0 1.8.3.2.1.4.3.6.2l3.5-1c.4.9.4 1.9.4 2.3a4.2 4.2 0 0 1-3.6 4"/><path fill="#3BB1F4" d="M114 42.4c2 0 2.3-2.2 2.3-3.3.2.5.4 2-.1 2.6-.7 1-2 1-2.2.7Zm-75.2 19S50.4 61 67 56.6c0 0-13.9 2.7-28.2 4.6Z"/><path fill="#383838" d="M84.6 15.6s-2.5.5-3.4 1.3l1-1.2 1-.2h1.4Z"/><path fill="#fff" d="m112 33.5-.6.2h.9c2.8.6 4.1 2.9 4.1 2.9-.2-1.8-3.2-3.3-4.5-3.1Z"/><path fill="#383838" d="m58.8 15.8 9.3-4.8-.5.9-7.8 4-1.6.3.6-.4Z"/></g></svg>