<svg width="30" height="30" viewBox="0 0 30 30" fill="none" xmlns="http://www.w3.org/2000/svg">
<path d="M12.2714 29.6294L11.8389 29.2588L11.2539 29.2084C10.5239 29.1479 10.1839 29.0811 9.77144 28.916L9.44894 28.7862L9.10145 28.9248C8.80645 29.0445 8.08395 29.1529 7.53521 29.1618C7.50521 29.1618 7.45521 29.0912 7.42396 29.0042C7.38896 28.916 7.32771 28.8315 7.28021 28.8151C7.23646 28.8 6.90897 28.8731 6.54647 28.9828L5.89022 29.1819L5.65398 29.0672C5.35648 28.921 5.23148 28.9235 4.73398 29.076C4.35524 29.1945 4.30774 29.197 4.00399 29.1315C3.55024 29.0357 3.1715 29.042 2.31775 29.1643C1.38776 29.2979 1.36776 29.2979 1.09402 29.1088C0.949566 28.9957 0.769079 28.9396 0.58652 28.9513C0.332772 28.9513 0.305272 28.9399 0.276523 28.8202C0.264796 28.7011 0.283292 28.581 0.330272 28.4711C0.470271 28.1207 0.525271 27.2712 0.54027 25.2407L0.55527 23.3438L0.819018 23.3627L1.07902 23.3816L1.11902 22.285C1.13902 21.6826 1.15902 20.8116 1.16277 20.3516L1.16901 19.5197L1.02902 19.4189C0.647769 19.1378 0.665269 19.1782 0.506521 18.2619C0.419261 17.7486 0.358347 17.2312 0.324022 16.7116C0.292773 16.041 0.295273 16.0221 0.417771 15.8822L0.54277 15.7385L0.852768 16.007C1.02527 16.1545 1.17151 16.2515 1.18526 16.2213C1.23026 16.0789 1.08902 14.3798 1.01652 14.1656C0.96885 14.0414 0.941005 13.9104 0.934017 13.7774C0.934017 13.6917 0.849018 13.4598 0.742769 13.2581L0.55402 12.8938L0.61777 12.2473C0.701519 11.3902 0.59402 10.76 0.237773 10.0012L0.0815244 9.65967L0.180274 8.81142L0.285273 7.96191L0.175274 7.52204L0.0615246 7.0809L0.192773 6.58808L0.319022 6.09275L0.175274 5.6138L0.0265249 5.13611L0.205273 4.63195C0.381522 4.14166 0.385272 4.11519 0.381522 3.3161C0.379022 2.41618 0.285273 1.83009 0.100274 1.59566C-0.0584744 1.39148 -0.0322246 1.25157 0.204023 1.03352C0.316522 0.92639 0.410272 0.790267 0.410272 0.73355C0.410272 0.646582 0.449021 0.630197 0.686519 0.625156C0.836518 0.625156 1.29901 0.584823 1.71526 0.536928L2.474 0.444919L3.4665 0.592386C4.45649 0.737331 4.45774 0.737331 5.81522 0.679353L7.17521 0.620114L7.49646 0.815475L7.82146 1.00832L9.1402 0.98941L10.4602 0.970504L10.9052 0.807913C11.1477 0.718425 11.5364 0.562136 11.7677 0.456263C12.0646 0.328601 12.3694 0.220402 12.6802 0.132341L13.1777 0L13.8202 0.204184L14.4626 0.410889L15.0176 0.22309L15.5701 0.0352911L16.1664 0.234433C16.4951 0.342827 17.1051 0.610031 17.5276 0.82934L18.2914 1.22258L19.0914 1.1999C19.6976 1.18099 19.9051 1.1583 19.9376 1.10159C20.0051 0.934802 20.0606 0.763372 20.1038 0.588604L20.2226 0.146206L20.9788 0.171414C21.5451 0.19158 22.0526 0.252079 22.9801 0.41593L24.2238 0.63776L24.5476 0.506679C24.7226 0.434836 25.0576 0.347869 25.2913 0.317619C25.6826 0.264683 25.7501 0.270985 26.2838 0.407107C26.7813 0.533147 26.9525 0.552053 27.6363 0.552053C28.0675 0.552053 28.515 0.533147 28.6338 0.512981C28.8375 0.47769 28.8713 0.491554 29.285 0.792788C29.5263 0.966723 29.74 1.13688 29.7588 1.17343C29.78 1.20746 29.825 1.39148 29.855 1.5818L29.9125 1.93219L29.6513 2.4313C29.505 2.70607 29.3838 2.95437 29.3838 2.98335C29.3838 3.01234 29.4438 3.06024 29.5138 3.09427C29.6222 3.16438 29.714 3.25777 29.7825 3.36777L29.9213 3.58204L29.89 6.46204C29.8713 8.04636 29.84 9.45926 29.8225 9.59917L29.7888 9.85629L29.3575 9.82856L28.9275 9.79453L28.8913 10.0353C28.8667 10.2123 28.8546 10.3909 28.855 10.5697C28.855 10.8117 28.8175 10.939 28.655 11.2578L28.4513 11.6498L28.5638 11.8124C28.6263 11.9032 28.84 12.1464 29.0388 12.3544L29.4038 12.7388L29.2925 13.1459L29.18 13.5555L29.3138 14.4227C29.4688 15.465 29.4575 15.7272 29.2038 16.6296C29.1304 16.8755 29.0695 17.125 29.0213 17.3771C29.0213 17.4716 29.09 17.4955 29.555 17.5598C29.7613 17.5863 29.805 17.6115 29.805 17.706C29.805 17.7678 29.8375 19.0975 29.88 20.6616C30.0138 25.7978 30.0263 26.9182 29.9638 28.0829C29.9486 28.458 29.9207 28.8326 29.88 29.2059C29.8675 29.2172 29.4538 29.0496 28.9575 28.834L28.0538 28.4458L27.6638 28.616C27.2613 28.7912 27.2213 28.8366 27.1688 29.1731C27.1325 29.3962 27.16 29.3861 26.1688 29.5903L25.5851 29.7113L25.0176 29.5197C24.4926 29.342 24.4213 29.3294 24.0076 29.3571C23.6988 29.376 23.4863 29.3609 23.3051 29.3067C23.0451 29.2323 23.0451 29.2323 22.6088 29.4353L22.1688 29.6357H20.5438C18.8326 29.6331 18.4801 29.6609 17.3014 29.8814C16.4864 30.0327 16.2001 30.0264 14.7739 29.8537L14.0214 29.7604L13.4952 29.8814C13.2027 29.9495 12.9077 30.0024 12.8377 29.9999C12.7527 29.9999 12.5577 29.8726 12.2739 29.6294H12.2714ZM9.1052 24.9798C10.3614 24.5021 11.3977 24.1038 11.4039 24.095C11.4202 24.0773 6.50772 19.2727 5.85522 18.6664C5.67398 18.4976 5.51148 18.3677 5.49898 18.3803C5.48773 18.3942 5.08773 19.4706 4.61274 20.7688C4.08774 22.2031 3.76399 23.1623 3.79024 23.2026C3.82149 23.2555 6.78022 25.8381 6.81397 25.8457C6.81772 25.8457 7.84896 25.4562 9.1052 24.9798ZM25.995 22.3468C26.6488 20.7524 27.165 19.4353 27.1475 19.4164C27.1238 19.3899 14.8601 11.0398 6.27522 5.20165L5.58648 4.73404L4.46149 5.24702C3.84024 5.52683 3.3415 5.78269 3.35025 5.81042C3.36275 5.84571 7.51396 10.2344 12.5802 15.5659L21.7901 25.2608L23.2976 25.2507L24.8088 25.2407L25.995 22.3468ZM24.2926 8.66269C24.5088 7.45019 24.6876 6.41793 24.6876 6.36751C24.6876 6.31332 24.3713 6.05368 23.8426 5.67934C23.3776 5.34912 22.9663 5.06175 22.9301 5.0378C22.8638 4.9962 18.0526 6.30828 18.0589 6.36499C18.0639 6.40281 23.8638 10.9012 23.8838 10.8797C23.8938 10.8722 24.0763 9.87267 24.2926 8.66269Z" fill="white"/>
</svg>
