<svg width="32" height="32" viewBox="0 0 32 32" fill="none" xmlns="http://www.w3.org/2000/svg">
<path fill-rule="evenodd" clip-rule="evenodd" d="M30.1194 7.18443C30.383 6.92072 30.5311 6.56309 30.5311 6.19021C30.5311 5.81732 30.383 5.4597 30.1194 5.19599L26.8048 1.88146C26.5411 1.61783 26.1835 1.46973 25.8106 1.46973C25.4377 1.46973 25.0801 1.61783 24.8164 1.88146L16.663 10.0344L21.9664 15.3379L30.1194 7.18443ZM17.8482 22.9574H17.6539L13.6971 19.0001L13.7317 19C14.3979 19 14.9945 19.0878 15.5215 19.2635C16.0518 19.4392 16.4976 19.696 16.8589 20.0341C17.2235 20.3688 17.4919 20.7815 17.6643 21.272C17.7397 21.4868 17.7939 21.7153 17.8268 21.9574C17.8354 22.0206 17.8425 22.0848 17.8482 22.1499C17.8705 22.4048 17.8705 22.6739 17.8482 22.9574ZM12.9111 19.5407L12.5011 19.1307C12.4511 19.1417 12.4012 19.1533 12.3514 19.1656L9.15442 21.3969C8.65606 22.1268 8.31914 23.0182 8.14367 24.071C8.08288 24.4488 8.04858 24.8077 8.04076 25.1478L8.27562 25.3827L10.1234 23.5349L12.9111 19.5407ZM6.68557 25.1129L5.95846 24.3858L3.80399 26.5403L5.46128 28.1975L6.31524 27.3436L6.68557 25.1129ZM4.33778 29.3215L4.79703 28.8627L3.51214 27.5778L3.22267 29.3215H4.33778ZM8.4348 20.6823L8.85692 18.1396H8.56343C8.58936 18.1102 8.61625 18.0816 8.64406 18.0538L10.0339 16.6635L11.686 18.3156C11.3841 18.4124 11.088 18.5314 10.798 18.6728C9.85909 19.1303 9.07091 19.8077 8.4348 20.6823ZM3.31111 30.3215H2.04297L2.44543 27.8972L1.81203 28.5313C1.59223 28.7511 1.46875 29.0492 1.46875 29.36C1.46875 29.6709 1.59223 29.969 1.81203 30.1888C2.03183 30.4086 2.32994 30.5321 2.64078 30.5321C2.88213 30.5321 3.11581 30.4576 3.31111 30.3215ZM6.87354 23.9806L6.97523 23.3681L6.61812 23.7252L6.87354 23.9806ZM1.88328 7.18489L12.7649 18.0678C13.082 18.0226 13.4044 18 13.7317 18C14.4843 18 15.1901 18.0991 15.8368 18.3145C16.4848 18.5293 17.0598 18.8536 17.5387 19.3007C18.0286 19.7516 18.3843 20.3047 18.6077 20.9405C18.6606 21.0909 18.7048 21.2444 18.7409 21.4008C18.8134 21.2666 18.8901 21.1356 18.9712 21.0079L15.7747 16.4277C15.7119 16.3374 15.6828 16.228 15.6925 16.1184C15.7023 16.0089 15.7502 15.9063 15.828 15.8285C15.9058 15.7508 16.0084 15.7028 16.1179 15.6931C16.2274 15.6833 16.3369 15.7124 16.4272 15.7752L21.0108 18.9733C21.1864 18.8645 21.3681 18.7642 21.5558 18.6728C22.1436 18.3863 22.7565 18.1914 23.3913 18.0879C23.3863 18.0825 23.3812 18.0772 23.376 18.0719C23.3701 18.0659 23.3641 18.0598 23.3581 18.0538L7.18625 1.88192C6.92254 1.61829 6.56492 1.47019 6.19203 1.47019C5.81915 1.47019 5.46153 1.61829 5.19782 1.88192L1.88328 5.19645C1.61965 5.46017 1.47155 5.81779 1.47155 6.19067C1.47155 6.56356 1.61965 6.92118 1.88328 7.18489ZM15.3373 21.9688L15.0319 22.2741C14.9843 22.1051 14.9089 21.9583 14.8056 21.8338C14.6929 21.6946 14.5454 21.5885 14.3631 21.5156C14.1808 21.4427 13.9637 21.4062 13.7119 21.4062C13.288 21.4062 12.9036 21.499 12.5586 21.6846L13.5842 20.2157L15.3373 21.9688ZM14.0876 22.8732L14.0557 23.25L13.947 23.3586C13.7379 23.5678 13.4823 23.7245 13.2011 23.816C12.9199 23.9075 12.621 23.9311 12.3289 23.885L12.0897 23.8469C12.1606 23.6374 12.243 23.4531 12.3345 23.2916L12.3361 23.2889C12.5178 22.9661 12.7244 22.7548 12.9449 22.6168L12.9502 22.6134C13.1595 22.4806 13.4035 22.4062 13.7119 22.4062C13.8709 22.4062 13.9558 22.4297 13.9917 22.4441C14.0136 22.4529 14.0238 22.4597 14.0266 22.4617L14.0283 22.463L14.0358 22.4721C14.0426 22.4802 14.059 22.5022 14.0731 22.5595C14.0887 22.6232 14.1002 22.7237 14.0876 22.8732ZM27.2537 28.9131L28.5308 30.1888C28.7506 30.4086 29.0487 30.5321 29.3595 30.5321C29.6704 30.5321 29.9685 30.4086 30.1883 30.1888C30.4081 29.969 30.5316 29.6709 30.5316 29.3601C30.5316 29.0492 30.4081 28.7511 30.1883 28.5313L28.8622 27.2038L28.2111 27.8549C27.9383 28.2357 27.6179 28.5881 27.2537 28.9131ZM26.2995 24.642L26.0455 24.388L25.7915 24.642H26.2995ZM22.7078 24.3658L23.7247 25.3827L25.15 23.9574H24.7538L24.8208 23.1638L24.1036 22.4466C23.9569 22.4814 23.8269 22.538 23.708 22.6134L23.7028 22.6168C23.4822 22.7548 23.2756 22.9661 23.0939 23.2889L23.0923 23.2916C22.9316 23.575 22.7992 23.9286 22.7078 24.3658ZM23.2838 21.7025C23.2461 21.7236 23.2089 21.7458 23.1721 21.7692C22.7909 22.0078 22.4744 22.3509 22.2225 22.7983C22.0932 23.0263 21.9831 23.2769 21.8923 23.5503L21.8769 23.5349L20.1551 21.0678C20.4309 20.7197 20.7343 20.4151 21.0654 20.1543L23.2838 21.7025ZM23.8749 19.0317C23.2188 19.1004 22.5918 19.2804 21.9938 19.5717C21.9693 19.5837 21.9449 19.5958 21.9206 19.6081L23.697 20.8475L23.8845 19.6719C23.9181 19.459 23.9147 19.2424 23.8749 19.0317ZM20.2148 19.5606L18.0477 18.0482L19.5614 20.2171C19.7659 19.9805 19.9837 19.7615 20.2148 19.5606ZM19.6018 21.9114C19.3007 22.4783 19.0802 23.1258 18.9404 23.854C19.1793 23.9115 19.4277 23.9216 19.6714 23.8832L20.847 23.6957L19.6018 21.9114ZM27.1429 27.5996L26.5427 28.1998L24.8358 26.4929C24.9266 26.4106 25.0083 26.3208 25.0812 26.2237C25.2137 26.0481 25.3148 25.8542 25.3844 25.642H27.2995L27.9491 26.2916C27.8995 26.4077 27.8441 26.5245 27.7829 26.642C27.7273 26.749 27.6669 26.8564 27.6018 26.9645C27.4681 27.1846 27.3151 27.3963 27.1429 27.5996Z" fill="white"/>
<path d="M28.6061 22.9574H25.8419C25.8617 22.7221 25.8485 22.5099 25.8021 22.321C25.7557 22.1321 25.6761 21.9697 25.5634 21.8338C25.4508 21.6946 25.3033 21.5885 25.121 21.5156C24.9387 21.4427 24.7216 21.4062 24.4697 21.4062C23.9858 21.4062 23.5533 21.5272 23.1721 21.7692C22.791 22.0078 22.4744 22.3509 22.2225 22.7983C21.9706 23.2424 21.7917 23.7727 21.6856 24.3892C21.5928 24.9858 21.5895 25.4813 21.6757 25.8757C21.7651 26.2701 21.9392 26.5651 22.1977 26.7607C22.4595 26.9562 22.7992 27.054 23.2169 27.054C23.4953 27.054 23.7505 27.0208 23.9825 26.9545C24.2178 26.8883 24.4266 26.7938 24.6089 26.6712C24.7945 26.5452 24.9519 26.3961 25.0812 26.2237C25.2138 26.0481 25.3149 25.8542 25.3845 25.642H28.1686C28.0625 26.0729 27.8736 26.5137 27.6018 26.9645C27.33 27.4119 26.9787 27.8246 26.5478 28.2024C26.1169 28.5769 25.6098 28.8802 25.0265 29.1122C24.4432 29.3442 23.7869 29.4602 23.0578 29.4602C22.1032 29.4602 21.2796 29.2514 20.5869 28.8338C19.8975 28.4162 19.397 27.8063 19.0855 27.0043C18.7772 26.2022 18.7159 25.2244 18.9015 24.071C19.0871 22.9574 19.4534 22.0244 20.0002 21.272C20.5471 20.5196 21.2116 19.9529 21.9938 19.5717C22.776 19.1906 23.608 19 24.4896 19C25.1558 19 25.7524 19.0878 26.2794 19.2635C26.8097 19.4392 27.2554 19.696 27.6167 20.0341C27.9813 20.3688 28.2498 20.7815 28.4221 21.272C28.5945 21.7625 28.6558 22.3243 28.6061 22.9574Z" fill="white"/>
<path d="M17.8482 22.9574H15.084C15.1039 22.7221 15.0907 22.5099 15.0443 22.321C14.9979 22.1321 14.9183 21.9697 14.8056 21.8338C14.6929 21.6946 14.5455 21.5885 14.3632 21.5156C14.1809 21.4427 13.9638 21.4062 13.7119 21.4062C13.228 21.4062 12.7955 21.5272 12.4143 21.7692C12.0331 22.0078 11.7166 22.3509 11.4647 22.7983C11.2128 23.2424 11.0339 23.7727 10.9278 24.3892C10.835 24.9858 10.8317 25.4813 10.9178 25.8757C11.0073 26.2701 11.1813 26.5651 11.4399 26.7607C11.7017 26.9562 12.0414 27.054 12.459 27.054C12.7374 27.054 12.9927 27.0208 13.2247 26.9545C13.46 26.8883 13.6688 26.7938 13.8511 26.6712C14.0367 26.5452 14.1941 26.3961 14.3234 26.2237C14.456 26.0481 14.5571 25.8542 14.6267 25.642H17.4107C17.3047 26.0729 17.1158 26.5137 16.844 26.9645C16.5722 27.4119 16.2209 27.8246 15.79 28.2024C15.3591 28.5769 14.852 28.8802 14.2687 29.1122C13.6854 29.3442 13.0291 29.4602 12.2999 29.4602C11.3454 29.4602 10.5218 29.2514 9.82907 28.8338C9.13967 28.4162 8.6392 27.8063 8.32765 27.0043C8.01941 26.2022 7.95809 25.2244 8.1437 24.071C8.32931 22.9574 8.69555 22.0244 9.24242 21.272C9.7893 20.5196 10.4538 19.9529 11.236 19.5717C12.0182 19.1906 12.8501 19 13.7318 19C14.398 19 14.9946 19.0878 15.5215 19.2635C16.0518 19.4392 16.4976 19.696 16.8589 20.0341C17.2235 20.3688 17.4919 20.7815 17.6643 21.272C17.8366 21.7625 17.898 22.3243 17.8482 22.9574Z" fill="white"/>
<path d="M7.6772 19.1396L5.98686 29.3215H3.22266L4.913 19.1396H7.6772Z" fill="white"/>
</svg>
